<svg xmlns="http://www.w3.org/2000/svg" viewBox="0 0 110 77" fill="none">
  <path fill-rule="evenodd" clip-rule="evenodd" d="M85.6471 27.7614C93.2978 27.7614 99.5 21.5468 99.5 13.8807C99.5 6.2146 93.2978 0 85.6471 0C77.9963 0 71.7942 6.2146 71.7942 13.8807C71.7942 21.5468 77.9963 27.7614 85.6471 27.7614ZM94.0366 11.9282C94.6013 11.3726 94.6097 10.4635 94.0552 9.89757C93.5007 9.33168 92.5934 9.32334 92.0286 9.87894L84.2082 17.5725L79.5878 12.8987C79.0308 12.3352 78.1235 12.3309 77.5612 12.889C76.9989 13.4471 76.9946 14.3563 77.5515 14.9197L83.176 20.6092C83.7313 21.1709 84.6351 21.1772 85.1981 20.6234L94.0366 11.9282Z" fill="url(#paint0_linear_160_5613)"/>
  <path d="M35.4927 49.4087C35.4927 48.2365 36.4307 47.2863 37.5878 47.2863C38.7448 47.2863 39.6828 48.2365 39.6828 49.4087C39.6828 50.5808 40.6208 51.5311 41.7779 51.5311C42.9349 51.5311 43.8729 50.5808 43.8729 49.4087C43.8729 45.8922 41.059 43.0414 37.5878 43.0414C34.1166 43.0414 31.3026 45.8922 31.3026 49.4087C31.3026 50.5808 32.2406 51.5311 33.3977 51.5311C34.5547 51.5311 35.4927 50.5808 35.4927 49.4087Z" fill="url(#paint1_linear_160_5613)"/>
  <path d="M62.7283 47.2863C61.5713 47.2863 60.6333 48.2365 60.6333 49.4087C60.6333 50.5808 59.6953 51.5311 58.5382 51.5311C57.3812 51.5311 56.4432 50.5808 56.4432 49.4087C56.4432 45.8922 59.2571 43.0414 62.7283 43.0414C66.1995 43.0414 69.0135 45.8922 69.0135 49.4087C69.0135 50.5808 68.0755 51.5311 66.9184 51.5311C65.7614 51.5311 64.8234 50.5808 64.8234 49.4087C64.8234 48.2365 63.8854 47.2863 62.7283 47.2863Z" fill="url(#paint2_linear_160_5613)"/>
  <path d="M56.4432 51.5311H43.8729V53.6535C43.8729 57.17 46.6869 60.0207 50.158 60.0207C53.6292 60.0207 56.4432 57.17 56.4432 53.6535V51.5311Z" fill="url(#paint3_linear_160_5613)"/>
  <path d="M28.4669 59.2703C28.0578 58.8559 28.0578 58.184 28.4669 57.7696L31.1755 55.0255C31.5846 54.6111 32.2479 54.6111 32.657 55.0255C33.066 55.4399 33.066 56.1119 32.657 56.5263L29.9483 59.2703C29.5392 59.6848 28.876 59.6848 28.4669 59.2703Z" fill="url(#paint4_linear_160_5613)"/>
  <path d="M32.657 57.7696C32.2479 58.184 32.2479 58.8559 32.657 59.2703C33.066 59.6848 33.7293 59.6848 34.1384 59.2703L36.8471 56.5263C37.2561 56.1119 37.2561 55.4399 36.8471 55.0255C36.438 54.6111 35.7747 54.6111 35.3656 55.0255L32.657 57.7696Z" fill="url(#paint5_linear_160_5613)"/>
  <path d="M36.8471 59.2703C36.438 58.8559 36.438 58.184 36.8471 57.7696L39.5557 55.0255C39.9648 54.6111 40.6281 54.6111 41.0372 55.0255C41.4462 55.4399 41.4462 56.1119 41.0372 56.5263L38.3285 59.2703C37.9194 59.6848 37.2561 59.6848 36.8471 59.2703Z" fill="url(#paint6_linear_160_5613)"/>
  <path d="M57.7975 57.7696C57.3884 58.184 57.3884 58.8559 57.7975 59.2703C58.2066 59.6848 58.8699 59.6848 59.2789 59.2703L61.9876 56.5263C62.3967 56.1119 62.3967 55.4399 61.9876 55.0255C61.5785 54.6111 60.9153 54.6111 60.5062 55.0255L57.7975 57.7696Z" fill="url(#paint7_linear_160_5613)"/>
  <path d="M61.9876 59.2703C61.5785 58.8559 61.5785 58.184 61.9876 57.7696L64.6963 55.0255C65.1054 54.6111 65.7686 54.6111 66.1777 55.0255C66.5868 55.4399 66.5868 56.1119 66.1777 56.5263L63.469 59.2703C63.06 59.6848 62.3967 59.6848 61.9876 59.2703Z" fill="url(#paint8_linear_160_5613)"/>
  <path d="M66.1777 57.7696C65.7686 58.184 65.7686 58.8559 66.1777 59.2703C66.5868 59.6848 67.25 59.6848 67.6591 59.2703L70.3678 56.5263C70.7769 56.1119 70.7769 55.4399 70.3678 55.0255C69.9587 54.6111 69.2955 54.6111 68.8864 55.0255L66.1777 57.7696Z" fill="url(#paint9_linear_160_5613)"/>
  <path fill-rule="evenodd" clip-rule="evenodd" d="M18.7323 47.2863C18.7323 30.8758 31.8641 17.5725 48.063 17.5725C63.3101 17.5725 75.8399 29.3584 77.2597 44.4278L78.404 43.7585C79.3664 43.1956 80.0687 42.2684 80.3563 41.181L81.5996 36.4804C81.8991 35.3481 83.0479 34.6762 84.1655 34.9796C85.2831 35.283 85.9464 36.4468 85.6469 37.579L84.4036 42.2796C83.8284 44.4545 82.4239 46.3088 80.4991 47.4346L77.3937 49.2509V52.2386C77.3937 55.5242 77.3937 57.167 77.2144 58.5462C75.9767 68.0702 68.579 75.5646 59.1778 76.8184C57.8164 77 56.1947 77 52.9515 77H31.7682C27.4259 77 25.2547 77 23.5709 76.2046C21.7853 75.3611 20.3501 73.9072 19.5175 72.0982C18.7323 70.3925 18.7323 68.1929 18.7323 63.7939V47.2863ZM73.2036 47.2863V52.2386C73.2036 55.6591 73.1945 56.9583 73.0602 57.9921C72.07 65.6113 66.1518 71.6068 58.6309 72.6099C57.6104 72.746 56.3279 72.7552 52.9515 72.7552H31.7682C29.5332 72.7552 28.0901 72.7523 26.989 72.6679C25.9315 72.5867 25.5345 72.4485 25.3417 72.3575C24.4489 71.9357 23.7313 71.2088 23.315 70.3043C23.2251 70.109 23.0887 69.7068 23.0086 68.6355C22.9252 67.52 22.9224 66.0581 22.9224 63.7939V47.2863C22.9224 33.2202 34.1783 21.8174 48.063 21.8174C61.9478 21.8174 73.2036 33.2202 73.2036 47.2863Z" fill="url(#paint10_linear_160_5613)"/>
  <path d="M23.4777 34.198C23.4777 34.198 71.9972 33.1065 73.008 34.198C74.0189 35.2895 73.008 40.0194 73.008 40.0194C53.5519 41.123 23.4777 41.1109 23.4777 40.0194C23.4777 38.9278 23.4777 34.198 23.4777 34.198Z" fill="url(#paint11_linear_160_5613)"/>
  <path d="M22.437 34.7061C22.9111 35.8506 22.1292 37.0891 20.8898 37.1399C19.8635 37.182 18.6732 37.1504 17.6995 36.9026C16.7284 36.6555 15.454 36.0615 14.6666 35.6681C14.1967 35.4334 13.8423 35.0137 13.7156 34.5046C13.0482 31.8248 13.8583 30.4755 17.1612 29.2599C17.8816 28.9948 18.69 29.2032 19.2071 29.7698C20.7435 31.4535 21.6648 32.8415 22.437 34.7061Z" fill="url(#paint12_linear_160_5613)"/>
  <path d="M14.8044 41.267C14.2737 40.4357 14.4426 39.3325 15.2292 38.7367C17.5685 36.9648 19.4278 36.0497 22.3126 35.1016C22.8422 34.9275 23.4188 35.1642 23.682 35.655C23.9415 36.1389 23.8244 36.7377 23.4127 37.1015C20.8705 39.348 19.5274 41.0818 16.872 42.0429C16.0935 42.3246 15.2495 41.9641 14.8044 41.267Z" fill="url(#paint13_linear_160_5613)"/>
  <defs>
    <linearGradient id="paint0_linear_160_5613" x1="13.5" y1="38.5016" x2="99.5" y2="38.5016" gradientUnits="userSpaceOnUse">
      <stop stop-color="#3034FF"/>
      <stop offset="0.54" stop-color="#086CB2"/>
      <stop offset="1" stop-color="#12847F"/>
    </linearGradient>
    <linearGradient id="paint1_linear_160_5613" x1="13.5" y1="38.5016" x2="99.5" y2="38.5016" gradientUnits="userSpaceOnUse">
      <stop stop-color="#3034FF"/>
      <stop offset="0.54" stop-color="#086CB2"/>
      <stop offset="1" stop-color="#12847F"/>
    </linearGradient>
    <linearGradient id="paint2_linear_160_5613" x1="13.5" y1="38.5016" x2="99.5" y2="38.5016" gradientUnits="userSpaceOnUse">
      <stop stop-color="#3034FF"/>
      <stop offset="0.54" stop-color="#086CB2"/>
      <stop offset="1" stop-color="#12847F"/>
    </linearGradient>
    <linearGradient id="paint3_linear_160_5613" x1="13.5" y1="38.5016" x2="99.5" y2="38.5016" gradientUnits="userSpaceOnUse">
      <stop stop-color="#3034FF"/>
      <stop offset="0.54" stop-color="#086CB2"/>
      <stop offset="1" stop-color="#12847F"/>
    </linearGradient>
    <linearGradient id="paint4_linear_160_5613" x1="13.5" y1="38.5016" x2="99.5" y2="38.5016" gradientUnits="userSpaceOnUse">
      <stop stop-color="#3034FF"/>
      <stop offset="0.54" stop-color="#086CB2"/>
      <stop offset="1" stop-color="#12847F"/>
    </linearGradient>
    <linearGradient id="paint5_linear_160_5613" x1="13.5" y1="38.5016" x2="99.5" y2="38.5016" gradientUnits="userSpaceOnUse">
      <stop stop-color="#3034FF"/>
      <stop offset="0.54" stop-color="#086CB2"/>
      <stop offset="1" stop-color="#12847F"/>
    </linearGradient>
    <linearGradient id="paint6_linear_160_5613" x1="13.5" y1="38.5016" x2="99.5" y2="38.5016" gradientUnits="userSpaceOnUse">
      <stop stop-color="#3034FF"/>
      <stop offset="0.54" stop-color="#086CB2"/>
      <stop offset="1" stop-color="#12847F"/>
    </linearGradient>
    <linearGradient id="paint7_linear_160_5613" x1="13.5" y1="38.5016" x2="99.5" y2="38.5016" gradientUnits="userSpaceOnUse">
      <stop stop-color="#3034FF"/>
      <stop offset="0.54" stop-color="#086CB2"/>
      <stop offset="1" stop-color="#12847F"/>
    </linearGradient>
    <linearGradient id="paint8_linear_160_5613" x1="13.5" y1="38.5016" x2="99.5" y2="38.5016" gradientUnits="userSpaceOnUse">
      <stop stop-color="#3034FF"/>
      <stop offset="0.54" stop-color="#086CB2"/>
      <stop offset="1" stop-color="#12847F"/>
    </linearGradient>
    <linearGradient id="paint9_linear_160_5613" x1="13.5" y1="38.5016" x2="99.5" y2="38.5016" gradientUnits="userSpaceOnUse">
      <stop stop-color="#3034FF"/>
      <stop offset="0.54" stop-color="#086CB2"/>
      <stop offset="1" stop-color="#12847F"/>
    </linearGradient>
    <linearGradient id="paint10_linear_160_5613" x1="13.5" y1="38.5016" x2="99.5" y2="38.5016" gradientUnits="userSpaceOnUse">
      <stop stop-color="#3034FF"/>
      <stop offset="0.54" stop-color="#086CB2"/>
      <stop offset="1" stop-color="#12847F"/>
    </linearGradient>
    <linearGradient id="paint11_linear_160_5613" x1="13.5" y1="38.5016" x2="99.5" y2="38.5016" gradientUnits="userSpaceOnUse">
      <stop stop-color="#3034FF"/>
      <stop offset="0.54" stop-color="#086CB2"/>
      <stop offset="1" stop-color="#12847F"/>
    </linearGradient>
    <linearGradient id="paint12_linear_160_5613" x1="13.5" y1="38.5016" x2="99.5" y2="38.5016" gradientUnits="userSpaceOnUse">
      <stop stop-color="#3034FF"/>
      <stop offset="0.54" stop-color="#086CB2"/>
      <stop offset="1" stop-color="#12847F"/>
    </linearGradient>
    <linearGradient id="paint13_linear_160_5613" x1="13.5" y1="38.5016" x2="99.5" y2="38.5016" gradientUnits="userSpaceOnUse">
      <stop stop-color="#3034FF"/>
      <stop offset="0.54" stop-color="#086CB2"/>
      <stop offset="1" stop-color="#12847F"/>
    </linearGradient>
  </defs>
</svg>
