<svg viewBox="0 0 109 77" fill="none" xmlns="http://www.w3.org/2000/svg">
<g id="Component 1">
<g id="Vector">
<path d="M40.5184 50.4248C40.5184 49.2958 41.4305 48.3806 42.5556 48.3806C43.6807 48.3806 44.5928 49.2958 44.5928 50.4248C44.5928 51.5538 45.5049 52.4691 46.63 52.4691C47.7551 52.4691 48.6672 51.5538 48.6672 50.4248C48.6672 47.0378 45.9309 44.2921 42.5556 44.2921C39.1802 44.2921 36.444 47.0378 36.444 50.4248C36.444 51.5538 37.356 52.4691 38.4812 52.4691C39.6063 52.4691 40.5184 51.5538 40.5184 50.4248Z" fill="url(#paint0_linear_152_4765)"/>
<path d="M67.0021 48.3806C65.877 48.3806 64.9649 49.2958 64.9649 50.4248C64.9649 51.5538 64.0528 52.4691 62.9277 52.4691C61.8026 52.4691 60.8905 51.5538 60.8905 50.4248C60.8905 47.0378 63.6267 44.2921 67.0021 44.2921C70.3775 44.2921 73.1137 47.0378 73.1137 50.4248C73.1137 51.5538 72.2016 52.4691 71.0765 52.4691C69.9514 52.4691 69.0393 51.5538 69.0393 50.4248C69.0393 49.2958 68.1272 48.3806 67.0021 48.3806Z" fill="url(#paint1_linear_152_4765)"/>
<path d="M60.8905 52.4691H48.6672V54.5133C48.6672 57.9003 51.4035 60.646 54.7788 60.646C58.1542 60.646 60.8905 57.9003 60.8905 54.5133V52.4691Z" fill="url(#paint2_linear_152_4765)"/>
<path d="M33.6865 59.9233C33.2887 59.5241 33.2887 58.8769 33.6865 58.4778L36.3204 55.8348C36.7182 55.4356 37.3631 55.4356 37.7609 55.8348C38.1587 56.234 38.1587 56.8811 37.7609 57.2803L35.127 59.9233C34.7292 60.3224 34.0843 60.3224 33.6865 59.9233Z" fill="url(#paint3_linear_152_4765)"/>
<path d="M37.7609 58.4778C37.3631 58.8769 37.3631 59.5241 37.7609 59.9233C38.1587 60.3224 38.8036 60.3224 39.2014 59.9233L41.8353 57.2803C42.2331 56.8811 42.2331 56.234 41.8353 55.8348C41.4375 55.4356 40.7926 55.4356 40.3948 55.8348L37.7609 58.4778Z" fill="url(#paint4_linear_152_4765)"/>
<path d="M41.8353 59.9233C41.4375 59.5241 41.4375 58.8769 41.8353 58.4778L44.4692 55.8348C44.867 55.4356 45.512 55.4356 45.9097 55.8348C46.3075 56.234 46.3075 56.8811 45.9097 57.2803L43.2758 59.9233C42.8781 60.3224 42.2331 60.3224 41.8353 59.9233Z" fill="url(#paint5_linear_152_4765)"/>
<path d="M62.2074 58.4778C61.8096 58.8769 61.8096 59.5241 62.2074 59.9233C62.6052 60.3224 63.2501 60.3224 63.6479 59.9233L66.2818 57.2803C66.6796 56.8811 66.6796 56.234 66.2818 55.8348C65.884 55.4356 65.2391 55.4356 64.8413 55.8348L62.2074 58.4778Z" fill="url(#paint6_linear_152_4765)"/>
<path d="M66.2818 59.9233C65.884 59.5241 65.884 58.8769 66.2818 58.4778L68.9157 55.8348C69.3135 55.4356 69.9585 55.4356 70.3563 55.8348C70.754 56.234 70.754 56.8811 70.3563 57.2803L67.7224 59.9233C67.3246 60.3224 66.6796 60.3224 66.2818 59.9233Z" fill="url(#paint7_linear_152_4765)"/>
<path d="M70.3563 58.4778C69.9585 58.8769 69.9585 59.5241 70.3563 59.9233C70.754 60.3224 71.399 60.3224 71.7968 59.9233L74.4307 57.2803C74.8285 56.8811 74.8285 56.234 74.4307 55.8348C74.0329 55.4356 73.3879 55.4356 72.9902 55.8348L70.3563 58.4778Z" fill="url(#paint8_linear_152_4765)"/>
<path fill-rule="evenodd" clip-rule="evenodd" d="M24.2207 48.3806C24.2207 32.5745 36.99 19.7611 52.7416 19.7611C67.5678 19.7611 79.7517 31.1129 81.1323 45.6274L82.2451 44.9827C83.1809 44.4405 83.8637 43.5475 84.1434 42.5001L85.3524 37.9726C85.6436 36.8821 86.7607 36.2349 87.8475 36.5271C88.9342 36.8193 89.5792 37.9402 89.288 39.0308L88.079 43.5583C87.5197 45.6531 86.1539 47.4391 84.2823 48.5234L81.2626 50.2729V53.1505C81.2626 56.3151 81.2626 57.8974 81.0883 59.2258C79.8848 68.399 72.6912 75.6174 63.5496 76.8251C62.2257 77 60.6489 77 57.4951 77H36.8967C32.6742 77 30.563 77 28.9257 76.2339C27.1894 75.4214 25.7938 74.0211 24.9842 72.2788C24.2207 70.6358 24.2207 68.5173 24.2207 64.2803V48.3806ZM77.1881 48.3806V53.1505C77.1881 56.445 77.1794 57.6964 77.0487 58.6922C76.0859 66.0307 70.3311 71.8055 63.0177 72.7716C62.0254 72.9027 60.7784 72.9115 57.4951 72.9115H36.8967C34.7233 72.9115 33.3201 72.9088 32.2494 72.8274C31.2211 72.7493 30.835 72.6161 30.6476 72.5285C29.7795 72.1222 29.0817 71.422 28.6769 70.5509C28.5895 70.3628 28.4568 69.9754 28.3789 68.9436C28.2978 67.8691 28.2951 66.4611 28.2951 64.2803V48.3806C28.2951 34.8325 39.2402 23.8496 52.7416 23.8496C66.2431 23.8496 77.1881 34.8325 77.1881 48.3806Z" fill="url(#paint9_linear_152_4765)"/>
<path fill-rule="evenodd" clip-rule="evenodd" d="M83.6393 27.2566C91.1401 27.2566 97.2207 21.155 97.2207 13.6283C97.2207 6.1016 91.1401 0 83.6393 0C76.1385 0 70.0579 6.1016 70.0579 13.6283C70.0579 21.155 76.1385 27.2566 83.6393 27.2566ZM91.8644 11.7113C92.418 11.1658 92.4262 10.2732 91.8826 9.71761C91.339 9.16201 90.4494 9.15382 89.8957 9.69932L82.2286 17.253L77.6988 12.6641C77.1527 12.111 76.2631 12.1067 75.7119 12.6547C75.1606 13.2026 75.1564 14.0953 75.7024 14.6484L81.2167 20.2345C81.761 20.786 82.6472 20.7922 83.1992 20.2484L91.8644 11.7113Z" fill="url(#paint10_linear_152_4765)"/>
</g>
</g>
<defs>
<linearGradient id="paint0_linear_152_4765" x1="24.2207" y1="38.5016" x2="97.2207" y2="38.5016" gradientUnits="userSpaceOnUse">
<stop stop-color="#3034FF"/>
<stop offset="0.54" stop-color="#086CB2"/>
<stop offset="1" stop-color="#12847F"/>
</linearGradient>
<linearGradient id="paint1_linear_152_4765" x1="24.2207" y1="38.5016" x2="97.2207" y2="38.5016" gradientUnits="userSpaceOnUse">
<stop stop-color="#3034FF"/>
<stop offset="0.54" stop-color="#086CB2"/>
<stop offset="1" stop-color="#12847F"/>
</linearGradient>
<linearGradient id="paint2_linear_152_4765" x1="24.2207" y1="38.5016" x2="97.2207" y2="38.5016" gradientUnits="userSpaceOnUse">
<stop stop-color="#3034FF"/>
<stop offset="0.54" stop-color="#086CB2"/>
<stop offset="1" stop-color="#12847F"/>
</linearGradient>
<linearGradient id="paint3_linear_152_4765" x1="24.2207" y1="38.5016" x2="97.2207" y2="38.5016" gradientUnits="userSpaceOnUse">
<stop stop-color="#3034FF"/>
<stop offset="0.54" stop-color="#086CB2"/>
<stop offset="1" stop-color="#12847F"/>
</linearGradient>
<linearGradient id="paint4_linear_152_4765" x1="24.2207" y1="38.5016" x2="97.2207" y2="38.5016" gradientUnits="userSpaceOnUse">
<stop stop-color="#3034FF"/>
<stop offset="0.54" stop-color="#086CB2"/>
<stop offset="1" stop-color="#12847F"/>
</linearGradient>
<linearGradient id="paint5_linear_152_4765" x1="24.2207" y1="38.5016" x2="97.2207" y2="38.5016" gradientUnits="userSpaceOnUse">
<stop stop-color="#3034FF"/>
<stop offset="0.54" stop-color="#086CB2"/>
<stop offset="1" stop-color="#12847F"/>
</linearGradient>
<linearGradient id="paint6_linear_152_4765" x1="24.2207" y1="38.5016" x2="97.2207" y2="38.5016" gradientUnits="userSpaceOnUse">
<stop stop-color="#3034FF"/>
<stop offset="0.54" stop-color="#086CB2"/>
<stop offset="1" stop-color="#12847F"/>
</linearGradient>
<linearGradient id="paint7_linear_152_4765" x1="24.2207" y1="38.5016" x2="97.2207" y2="38.5016" gradientUnits="userSpaceOnUse">
<stop stop-color="#3034FF"/>
<stop offset="0.54" stop-color="#086CB2"/>
<stop offset="1" stop-color="#12847F"/>
</linearGradient>
<linearGradient id="paint8_linear_152_4765" x1="24.2207" y1="38.5016" x2="97.2207" y2="38.5016" gradientUnits="userSpaceOnUse">
<stop stop-color="#3034FF"/>
<stop offset="0.54" stop-color="#086CB2"/>
<stop offset="1" stop-color="#12847F"/>
</linearGradient>
<linearGradient id="paint9_linear_152_4765" x1="24.2207" y1="38.5016" x2="97.2207" y2="38.5016" gradientUnits="userSpaceOnUse">
<stop stop-color="#3034FF"/>
<stop offset="0.54" stop-color="#086CB2"/>
<stop offset="1" stop-color="#12847F"/>
</linearGradient>
<linearGradient id="paint10_linear_152_4765" x1="24.2207" y1="38.5016" x2="97.2207" y2="38.5016" gradientUnits="userSpaceOnUse">
<stop stop-color="#3034FF"/>
<stop offset="0.54" stop-color="#086CB2"/>
<stop offset="1" stop-color="#12847F"/>
</linearGradient>
</defs>
</svg>
