<svg viewBox="0 0 89 85" fill="none" xmlns="http://www.w3.org/2000/svg">
<path id="Union" fill-rule="evenodd" clip-rule="evenodd" d="M88.9799 9.03491C83.5475 7.79054 81.9401 5.68243 80.445 0.5C80.445 0.5 79.9479 4.87658 78.1173 6.70721C76.2866 8.53784 71.9101 9.03491 71.9101 9.03491C71.9101 9.03491 75.614 10.4111 77.3414 12.1385C79.0688 13.8659 80.445 17.5698 80.445 17.5698C80.445 17.5698 81.8212 13.8659 83.5486 12.1385C85.276 10.4111 88.9799 9.03491 88.9799 9.03491ZM58.3592 8.98448L60.4579 11.1136L51.4193 20.2834L49.3207 18.1543C48.9923 17.8211 48.7445 17.437 48.5775 17.027C48.0645 15.7683 48.3123 14.2658 49.3207 13.2427L53.518 8.98448C54.5264 7.96139 56.0075 7.71004 57.2481 8.23042C57.6522 8.39991 58.0308 8.65126 58.3592 8.98448ZM67.3639 36.4595L52.5491 21.4296L61.5876 12.2598L76.4024 27.2897C77.0444 27.941 77.405 28.8244 77.405 29.7455V37.4767H69.7845C68.8766 37.4767 68.0059 37.1108 67.3639 36.4595ZM70.139 33.1355H73.1259V30.1052L61.5876 18.3993L58.6007 21.4296L70.139 33.1355ZM33.904 26.1531C22.7652 26.1531 13.1056 32.5783 8.32978 41.9749C7.65838 40.6149 6.83418 39.4669 5.6148 38.1286C5.10784 37.5722 4.31521 37.3676 3.60896 37.6279C0.370842 38.8214 -0.423395 40.1462 0.230859 42.7772C0.355169 43.2771 0.702626 43.6891 1.16331 43.9196C1.93528 44.3058 3.18466 44.8891 4.13672 45.1317C4.20786 45.1498 4.28017 45.1668 4.35351 45.1826C3.486 45.6675 2.63859 46.2317 1.71487 46.9324C0.943697 47.5174 0.778023 48.6005 1.29835 49.4167C1.73471 50.1012 2.56224 50.4551 3.32541 50.1785C4.31588 49.8195 5.12013 49.3507 5.87373 48.7861C5.39903 50.8887 5.14827 53.0779 5.14827 55.3265V71.534C5.14827 75.8531 5.14827 78.0126 5.91804 79.6874C6.73437 81.4634 8.14139 82.8909 9.892 83.719C11.5428 84.5 13.6714 84.5 17.9286 84.5H38.6967C41.8764 84.5 43.4662 84.5 44.801 84.3217C54.0179 83.0907 61.2707 75.7325 62.4841 66.3817C62.6598 65.0276 62.6598 63.4147 62.6598 60.1888V57.2555L65.7044 55.4722C67.5915 54.3669 68.9684 52.5463 69.5324 50.4109L70.7513 45.7958C71.0449 44.6841 70.3947 43.5415 69.2989 43.2436C68.2032 42.9458 67.0769 43.6055 66.7833 44.7171L65.5644 49.3323C65.2824 50.3999 64.5939 51.3102 63.6504 51.8629L62.5285 52.5201C61.1365 37.7247 48.8523 26.1531 33.904 26.1531ZM58.5519 60.1888V55.3265C58.5519 52.864 58.201 50.4846 57.5472 48.237C39.8031 49.2018 13.7881 49.2468 10.2142 48.3995C9.59041 50.5992 9.25624 52.9233 9.25624 55.3265V71.534C9.25624 73.7571 9.25898 75.1924 9.34073 76.2876C9.41924 77.3394 9.55301 77.7343 9.64112 77.926C10.0493 78.8141 10.7528 79.5278 11.6281 79.9419C11.8171 80.0313 12.2063 80.167 13.2431 80.2466C14.3226 80.3296 15.7374 80.3324 17.9286 80.3324H38.6967C42.007 80.3324 43.2643 80.3234 44.2648 80.1897C51.6383 79.2049 57.4405 73.3184 58.4113 65.8378C58.543 64.8227 58.5519 63.5471 58.5519 60.1888ZM12.7931 42.4128C21.3122 42.2385 45.6757 41.787 54.8369 42.1184C50.4851 35.0348 42.7372 30.3207 33.904 30.3207C24.9491 30.3207 17.1095 35.1657 12.7931 42.4128ZM23.6341 55.3265C22.4997 55.3265 21.5801 56.2595 21.5801 57.4104C21.5801 58.5612 20.6605 59.4942 19.5262 59.4942C18.3918 59.4942 17.4722 58.5612 17.4722 57.4104C17.4722 53.9578 20.231 51.1589 23.6341 51.1589C27.0373 51.1589 29.7961 53.9578 29.7961 57.4104C29.7961 58.5612 28.8765 59.4942 27.7421 59.4942C26.6077 59.4942 25.6881 58.5612 25.6881 57.4104C25.6881 56.2595 24.7685 55.3265 23.6341 55.3265ZM46.2279 57.4104C46.2279 56.2595 47.1476 55.3265 48.2819 55.3265C49.4163 55.3265 50.3359 56.2595 50.3359 57.4104C50.3359 58.5612 51.2555 59.4942 52.3899 59.4942C53.5243 59.4942 54.4439 58.5612 54.4439 57.4104C54.4439 53.9578 51.6851 51.1589 48.2819 51.1589C44.8788 51.1589 42.12 53.9578 42.12 57.4104C42.12 58.5612 43.0396 59.4942 44.174 59.4942C45.3083 59.4942 46.2279 58.5612 46.2279 57.4104ZM42.12 59.4942H29.7961V61.578C29.7961 65.0306 32.5549 67.8295 35.958 67.8295C39.3612 67.8295 42.12 65.0306 42.12 61.578V59.4942ZM14.692 65.6192C14.2909 66.0261 14.2909 66.6858 14.692 67.0927C15.0931 67.4996 15.7433 67.4996 16.1444 67.0927L18.8 64.3986C19.201 63.9917 19.201 63.332 18.8 62.9251C18.3989 62.5182 17.7486 62.5182 17.3476 62.9251L14.692 65.6192ZM18.8 65.6192C18.3989 66.0261 18.3989 66.6858 18.8 67.0927C19.201 67.4996 19.8513 67.4996 20.2524 67.0927L22.9079 64.3986C23.309 63.9917 23.309 63.332 22.9079 62.9251C22.5069 62.5182 21.8566 62.5182 21.4555 62.9251L18.8 65.6192ZM22.9079 65.6192C22.5069 66.0261 22.5069 66.6858 22.9079 67.0927C23.309 67.4996 23.9593 67.4996 24.3603 67.0927L27.0159 64.3986C27.417 63.9917 27.417 63.332 27.0159 62.9251C26.6148 62.5182 25.9646 62.5182 25.5635 62.9251L22.9079 65.6192ZM43.4478 65.6192C43.0467 66.0261 43.0467 66.6858 43.4478 67.0927C43.8488 67.4996 44.4991 67.4996 44.9002 67.0927L47.5557 64.3986C47.9568 63.9917 47.9568 63.332 47.5557 62.9251C47.1547 62.5182 46.5044 62.5182 46.1034 62.9251L43.4478 65.6192ZM47.5557 65.6192C47.1547 66.0261 47.1547 66.6858 47.5557 67.0927C47.9568 67.4996 48.6071 67.4996 49.0081 67.0927L51.6637 64.3986C52.0648 63.9917 52.0648 63.332 51.6637 62.9251C51.2626 62.5182 50.6124 62.5182 50.2113 62.9251L47.5557 65.6192ZM51.6637 65.6192C51.2626 66.0261 51.2626 66.6858 51.6637 67.0927C52.0648 67.4996 52.715 67.4996 53.1161 67.0927L55.7717 64.3986C56.1727 63.9917 56.1727 63.332 55.7717 62.9251C55.3706 62.5182 54.7204 62.5182 54.3193 62.9251L51.6637 65.6192ZM82.1149 38.9056C83.155 42.5107 84.2731 43.9772 88.0522 44.8429C88.0522 44.8429 85.4756 45.8002 84.2739 47.0019C83.0722 48.2035 82.1149 50.7801 82.1149 50.7801C82.1149 50.7801 81.1576 48.2035 79.9559 47.0019C78.7542 45.8002 76.1776 44.8429 76.1776 44.8429C76.1776 44.8429 79.2222 44.4971 80.4956 43.2236C81.7691 41.9501 82.1149 38.9056 82.1149 38.9056ZM39.7702 4.53595C40.802 8.11236 41.9112 9.56718 45.6602 10.4259C45.6602 10.4259 43.1041 11.3756 41.912 12.5677C40.7199 13.7598 39.7702 16.3159 39.7702 16.3159C39.7702 16.3159 38.8205 13.7598 37.6284 12.5677C36.4363 11.3756 33.8802 10.4259 33.8802 10.4259C33.8802 10.4259 36.9005 10.0829 38.1638 8.81957C39.4271 7.55624 39.7702 4.53595 39.7702 4.53595Z" fill="url(#paint0_linear_160_5566)"/>
<defs>
<linearGradient id="paint0_linear_160_5566" x1="0.0195312" y1="42.5017" x2="88.9799" y2="42.5017" gradientUnits="userSpaceOnUse">
<stop stop-color="#3034FF"/>
<stop offset="0.54" stop-color="#086CB2"/>
<stop offset="1" stop-color="#12847F"/>
</linearGradient>
</defs>
</svg>
