<svg viewBox="0 0 98 64" fill="none" xmlns="http://www.w3.org/2000/svg">
<g id="64px / Blobby Success Sparkles">
<g id="Vector">
<path d="M37.9488 41.9256C37.9488 41.0317 38.6735 40.307 39.5674 40.307C40.4614 40.307 41.186 41.0317 41.186 41.9256C41.186 42.8195 41.9107 43.5442 42.8046 43.5442C43.6986 43.5442 44.4233 42.8195 44.4233 41.9256C44.4233 39.2438 42.2492 37.0698 39.5674 37.0698C36.8856 37.0698 34.7116 39.2438 34.7116 41.9256C34.7116 42.8195 35.4363 43.5442 36.3302 43.5442C37.2242 43.5442 37.9488 42.8195 37.9488 41.9256Z" fill="url(#paint0_linear_143_3161)"/>
<path d="M58.9907 40.307C58.0968 40.307 57.3721 41.0317 57.3721 41.9256C57.3721 42.8195 56.6474 43.5442 55.7535 43.5442C54.8596 43.5442 54.1349 42.8195 54.1349 41.9256C54.1349 39.2438 56.3089 37.0698 58.9907 37.0698C61.6725 37.0698 63.8465 39.2438 63.8465 41.9256C63.8465 42.8195 63.1218 43.5442 62.2279 43.5442C61.334 43.5442 60.6093 42.8195 60.6093 41.9256C60.6093 41.0317 59.8846 40.307 58.9907 40.307Z" fill="url(#paint1_linear_143_3161)"/>
<path d="M54.1349 43.5442H44.4233V45.1628C44.4233 47.8446 46.5973 50.0186 49.2791 50.0186C51.9609 50.0186 54.1349 47.8446 54.1349 45.1628V43.5442Z" fill="url(#paint2_linear_143_3161)"/>
<path d="M32.5208 49.4464C32.2047 49.1303 32.2047 48.6179 32.5208 48.3018L34.6134 46.2092C34.9295 45.8931 35.4419 45.8931 35.758 46.2092C36.074 46.5252 36.074 47.0376 35.758 47.3537L33.6653 49.4464C33.3492 49.7624 32.8368 49.7624 32.5208 49.4464Z" fill="url(#paint3_linear_143_3161)"/>
<path d="M35.758 48.3018C35.4419 48.6179 35.4419 49.1303 35.758 49.4464C36.074 49.7624 36.5864 49.7624 36.9025 49.4464L38.9952 47.3537C39.3112 47.0376 39.3112 46.5252 38.9952 46.2092C38.6791 45.8931 38.1667 45.8931 37.8507 46.2092L35.758 48.3018Z" fill="url(#paint4_linear_143_3161)"/>
<path d="M38.9952 49.4464C38.6791 49.1303 38.6791 48.6179 38.9952 48.3018L41.0879 46.2092C41.4039 45.8931 41.9163 45.8931 42.2324 46.2092C42.5484 46.5252 42.5484 47.0376 42.2324 47.3537L40.1397 49.4464C39.8237 49.7624 39.3112 49.7624 38.9952 49.4464Z" fill="url(#paint5_linear_143_3161)"/>
<path d="M55.1812 48.3018C54.8652 48.6179 54.8652 49.1303 55.1812 49.4464C55.4973 49.7624 56.0097 49.7624 56.3257 49.4464L58.4184 47.3537C58.7345 47.0376 58.7345 46.5252 58.4184 46.2092C58.1024 45.8931 57.59 45.8931 57.2739 46.2092L55.1812 48.3018Z" fill="url(#paint6_linear_143_3161)"/>
<path d="M58.4184 49.4464C58.1024 49.1303 58.1024 48.6179 58.4184 48.3018L60.5111 46.2092C60.8272 45.8931 61.3396 45.8931 61.6556 46.2092C61.9717 46.5252 61.9717 47.0376 61.6556 47.3537L59.563 49.4464C59.2469 49.7624 58.7345 49.7624 58.4184 49.4464Z" fill="url(#paint7_linear_143_3161)"/>
<path d="M61.6556 48.3018C61.3396 48.6179 61.3396 49.1303 61.6556 49.4464C61.9717 49.7624 62.4841 49.7624 62.8002 49.4464L64.8928 47.3537C65.2089 47.0376 65.2089 46.5252 64.8928 46.2092C64.5768 45.8931 64.0644 45.8931 63.7483 46.2092L61.6556 48.3018Z" fill="url(#paint8_linear_143_3161)"/>
<path fill-rule="evenodd" clip-rule="evenodd" d="M25 40.307C25 27.792 35.1454 17.6465 47.6605 17.6465C59.4401 17.6465 69.1205 26.6348 70.2174 38.1271L71.1015 37.6166C71.8451 37.1873 72.3876 36.4803 72.6098 35.651L73.5704 32.0661C73.8018 31.2027 74.6893 30.6903 75.5528 30.9216C76.4162 31.153 76.9287 32.0405 76.6973 32.904L75.7367 36.4888C75.2923 38.1474 74.2072 39.5616 72.7201 40.4201L70.3209 41.8053V44.0838C70.3209 46.5895 70.3209 47.8423 70.1824 48.8941C69.2262 56.1574 63.5108 61.8728 56.2476 62.829C55.1958 62.9675 53.9429 62.9675 51.4372 62.9675H35.0713C31.7165 62.9675 30.0391 62.9675 28.7382 62.3609C27.3587 61.7176 26.2499 60.6088 25.6066 59.2293C25 57.9284 25 56.251 25 52.8962V40.307ZM67.0837 40.307V44.0838C67.0837 46.6924 67.0767 47.6832 66.9729 48.4716C66.208 54.2822 61.6356 58.8545 55.825 59.6195C55.0366 59.7233 54.0458 59.7303 51.4372 59.7303H35.0713C33.3446 59.7303 32.2297 59.7281 31.379 59.6637C30.562 59.6018 30.2552 59.4964 30.1063 59.427C29.4165 59.1053 28.8622 58.5509 28.5405 57.8612C28.4711 57.7123 28.3657 57.4055 28.3038 56.5885C28.2394 55.7378 28.2372 54.6229 28.2372 52.8962V40.307C28.2372 29.5798 36.9333 20.8838 47.6605 20.8838C58.3876 20.8838 67.0837 29.5798 67.0837 40.307Z" fill="url(#paint9_linear_143_3161)"/>
</g>
<g id="Sparkles">
<path id="Polygon 4 (Stroke)" fill-rule="evenodd" clip-rule="evenodd" d="M86.9102 25.4297C87.1513 25.3109 87.4375 25.3298 87.6609 25.4793L91.26 27.8868C91.4834 28.0363 91.6101 28.2936 91.5924 28.5618C91.5747 28.83 91.4152 29.0683 91.1741 29.1871L87.2895 31.1002C87.0484 31.219 86.7622 31.2001 86.5388 31.0506C86.3154 30.9012 86.1887 30.6439 86.2064 30.3757L86.4919 26.055C86.5096 25.7868 86.6691 25.5484 86.9102 25.4297ZM87.9074 27.4544L87.7937 29.1746L89.3403 28.413L87.9074 27.4544Z" fill="#FFC001"/>
<path id="Ellipse 14" d="M57 10.5C57 11.3284 56.3284 12 55.5 12C54.6716 12 54 11.3284 54 10.5C54 9.67157 54.6716 9 55.5 9C56.3284 9 57 9.67157 57 10.5Z" fill="#076AC9"/>
<path id="Ellipse 15" d="M10 43C10 44.1046 9.10457 45 8 45C6.89543 45 6 44.1046 6 43C6 41.8954 6.89543 41 8 41C9.10457 41 10 41.8954 10 43Z" fill="#076AC9"/>
<path id="Ellipse 16" d="M90 47C90 48.1046 89.1046 49 88 49C86.8954 49 86 48.1046 86 47C86 45.8954 86.8954 45 88 45C89.1046 45 90 45.8954 90 47Z" fill="#076AC9"/>
<path id="Ellipse 18" d="M76 45C76 45.5523 75.5523 46 75 46C74.4477 46 74 45.5523 74 45C74 44.4477 74.4477 44 75 44C75.5523 44 76 44.4477 76 45Z" fill="#F8CAD4"/>
<path id="Ellipse 21" d="M92 62C92 62.5523 91.5523 63 91 63C90.4477 63 90 62.5523 90 62C90 61.4477 90.4477 61 91 61C91.5523 61 92 61.4477 92 62Z" fill="#F8CAD4"/>
<path id="Ellipse 20" d="M9 18C9 18.5523 8.55228 19 8 19C7.44772 19 7 18.5523 7 18C7 17.4477 7.44772 17 8 17C8.55228 17 9 17.4477 9 18Z" fill="#F8CAD4"/>
<path id="Ellipse 19" d="M36 13C36 13.5523 35.5523 14 35 14C34.4477 14 34 13.5523 34 13C34 12.4477 34.4477 12 35 12C35.5523 12 36 12.4477 36 13Z" fill="#F8CAD4"/>
<path id="Ellipse 22" d="M86 10C86 10.5523 85.5523 11 85 11C84.4477 11 84 10.5523 84 10C84 9.44772 84.4477 9 85 9C85.5523 9 86 9.44772 86 10Z" fill="#F8CAD4"/>
<path id="Ellipse 17" d="M25 12C25 13.1046 24.1046 14 23 14C21.8954 14 21 13.1046 21 12C21 10.8954 21.8954 10 23 10C24.1046 10 25 10.8954 25 12Z" fill="#076AC9"/>
<g id="Group">
<line id="Line" x1="0.733251" y1="-0.733251" x2="5.47736" y2="-0.733251" transform="matrix(-0.859479 0.511172 -0.513673 -0.857986 20.6113 21.1268)" stroke="#FFC001" stroke-width="1.4665" stroke-linecap="round" stroke-linejoin="round"/>
<line id="Line 2" x1="0.733251" y1="-0.733251" x2="5.4676" y2="-0.733251" transform="matrix(0.513672 0.857987 -0.859478 0.511173 16.1348 20.9053)" stroke="#FFC001" stroke-width="1.4665" stroke-linecap="round" stroke-linejoin="round"/>
</g>
<g id="Group_2">
<line id="Line_2" x1="0.733251" y1="-0.733251" x2="5.47736" y2="-0.733251" transform="matrix(-0.859479 0.511172 -0.513673 -0.857986 74.6113 13.1268)" stroke="#FFC001" stroke-width="1.4665" stroke-linecap="round" stroke-linejoin="round"/>
<line id="Line 2_2" x1="0.733251" y1="-0.733251" x2="5.4676" y2="-0.733251" transform="matrix(0.513672 0.857987 -0.859478 0.511173 70.1348 12.9053)" stroke="#FFC001" stroke-width="1.4665" stroke-linecap="round" stroke-linejoin="round"/>
</g>
<g id="Group_3">
<line id="Line_3" x1="0.733251" y1="-0.733251" x2="5.47736" y2="-0.733251" transform="matrix(-0.859479 0.511172 -0.513673 -0.857986 79.6113 53.1268)" stroke="#FFC001" stroke-width="1.4665" stroke-linecap="round" stroke-linejoin="round"/>
<line id="Line 2_3" x1="0.733251" y1="-0.733251" x2="5.4676" y2="-0.733251" transform="matrix(0.513672 0.857987 -0.859478 0.511173 75.1348 52.9053)" stroke="#FFC001" stroke-width="1.4665" stroke-linecap="round" stroke-linejoin="round"/>
</g>
<path id="Polygon 5 (Stroke)" fill-rule="evenodd" clip-rule="evenodd" d="M11.2918 52.8053C11.5029 52.6389 11.7868 52.5979 12.0364 52.6976L16.0576 54.3037C16.3072 54.4034 16.4847 54.6287 16.5232 54.8947C16.5616 55.1607 16.4553 55.427 16.2441 55.5934L12.8426 58.2728C12.6314 58.4391 12.3476 58.4802 12.098 58.3805C11.8484 58.2808 11.6709 58.0555 11.6324 57.7895L11.0127 53.5039C10.9743 53.2379 11.0806 52.9716 11.2918 52.8053ZM12.6884 54.5783L12.9351 56.2845L14.2894 55.2177L12.6884 54.5783Z" fill="#FFC001"/>
</g>
</g>
<defs>
<linearGradient id="paint0_linear_143_3161" x1="25" y1="40.3079" x2="76.7528" y2="40.3079" gradientUnits="userSpaceOnUse">
<stop stop-color="#3034FF"/>
<stop offset="0.54" stop-color="#086CB2"/>
<stop offset="1" stop-color="#12847F"/>
</linearGradient>
<linearGradient id="paint1_linear_143_3161" x1="25" y1="40.3079" x2="76.7528" y2="40.3079" gradientUnits="userSpaceOnUse">
<stop stop-color="#3034FF"/>
<stop offset="0.54" stop-color="#086CB2"/>
<stop offset="1" stop-color="#12847F"/>
</linearGradient>
<linearGradient id="paint2_linear_143_3161" x1="25" y1="40.3079" x2="76.7528" y2="40.3079" gradientUnits="userSpaceOnUse">
<stop stop-color="#3034FF"/>
<stop offset="0.54" stop-color="#086CB2"/>
<stop offset="1" stop-color="#12847F"/>
</linearGradient>
<linearGradient id="paint3_linear_143_3161" x1="25" y1="40.3079" x2="76.7528" y2="40.3079" gradientUnits="userSpaceOnUse">
<stop stop-color="#3034FF"/>
<stop offset="0.54" stop-color="#086CB2"/>
<stop offset="1" stop-color="#12847F"/>
</linearGradient>
<linearGradient id="paint4_linear_143_3161" x1="25" y1="40.3079" x2="76.7528" y2="40.3079" gradientUnits="userSpaceOnUse">
<stop stop-color="#3034FF"/>
<stop offset="0.54" stop-color="#086CB2"/>
<stop offset="1" stop-color="#12847F"/>
</linearGradient>
<linearGradient id="paint5_linear_143_3161" x1="25" y1="40.3079" x2="76.7528" y2="40.3079" gradientUnits="userSpaceOnUse">
<stop stop-color="#3034FF"/>
<stop offset="0.54" stop-color="#086CB2"/>
<stop offset="1" stop-color="#12847F"/>
</linearGradient>
<linearGradient id="paint6_linear_143_3161" x1="25" y1="40.3079" x2="76.7528" y2="40.3079" gradientUnits="userSpaceOnUse">
<stop stop-color="#3034FF"/>
<stop offset="0.54" stop-color="#086CB2"/>
<stop offset="1" stop-color="#12847F"/>
</linearGradient>
<linearGradient id="paint7_linear_143_3161" x1="25" y1="40.3079" x2="76.7528" y2="40.3079" gradientUnits="userSpaceOnUse">
<stop stop-color="#3034FF"/>
<stop offset="0.54" stop-color="#086CB2"/>
<stop offset="1" stop-color="#12847F"/>
</linearGradient>
<linearGradient id="paint8_linear_143_3161" x1="25" y1="40.3079" x2="76.7528" y2="40.3079" gradientUnits="userSpaceOnUse">
<stop stop-color="#3034FF"/>
<stop offset="0.54" stop-color="#086CB2"/>
<stop offset="1" stop-color="#12847F"/>
</linearGradient>
<linearGradient id="paint9_linear_143_3161" x1="25" y1="40.3079" x2="76.7528" y2="40.3079" gradientUnits="userSpaceOnUse">
<stop stop-color="#3034FF"/>
<stop offset="0.54" stop-color="#086CB2"/>
<stop offset="1" stop-color="#12847F"/>
</linearGradient>
</defs>
</svg>
