<svg xmlns="http://www.w3.org/2000/svg" viewBox="0 0 86 54" fill="none">
  <path fill-rule="evenodd" clip-rule="evenodd" d="M43 9C35.1533 9 28.2746 13.1779 24.4326 19.4476C24.0065 18.0799 23.4387 17.0147 22.5293 15.8359C21.9982 15.1475 21.0444 14.9386 20.268 15.3376C17.6312 16.6927 16.8213 17.9748 17.0317 20.1726C17.0902 20.7831 17.4935 21.3005 18.0586 21.545C18.6904 21.8184 19.5476 22.1478 20.2396 22.2625C20.5059 22.3067 20.7945 22.3269 21.0935 22.3291C20.0247 22.826 19.0626 23.4222 17.9861 24.2486C17.2826 24.7887 17.139 25.7781 17.614 26.5284C18.0137 27.1597 18.7736 27.4983 19.4769 27.2451C20.3799 26.9199 21.095 26.473 21.7717 25.9257C21.3918 27.551 21.1909 29.2458 21.1909 30.988V43.2036C21.1909 46.4589 21.1909 48.0866 21.7747 49.3488C22.3938 50.6874 23.4609 51.7633 24.7886 52.3875C26.0406 52.9761 27.655 52.9761 30.8838 52.9761H46.6348C49.0464 52.9761 50.2522 52.9761 51.2645 52.8417C58.2548 51.9139 63.7555 46.3681 64.6758 39.3204C64.8091 38.2998 64.8091 37.0841 64.8091 34.6527V32.4419L67.1182 31.0978C68.5494 30.2647 69.5937 28.8926 70.0214 27.2832L70.9459 23.8047C71.1686 22.9669 70.6754 22.1057 69.8444 21.8812C69.0133 21.6567 68.1592 22.1539 67.9365 22.9917L67.012 26.4702C66.7981 27.2749 66.276 27.961 65.5604 28.3775L64.7095 28.8728C63.6538 17.7215 54.3371 9 43 9ZM61.6935 34.6527V30.988C61.6935 28.7366 61.302 26.5774 60.5837 24.5759C47.3057 25.4222 27.9451 25.4569 25.3706 24.7044C24.6815 26.6697 24.3064 28.7847 24.3064 30.988V43.2036C24.3064 44.8791 24.3085 45.9609 24.3705 46.7864C24.4301 47.5792 24.5315 47.8768 24.5984 48.0213C24.9079 48.6906 25.4415 49.2285 26.1053 49.5406C26.2486 49.608 26.5439 49.7103 27.3302 49.7703C28.1489 49.8328 29.2219 49.8349 30.8838 49.8349H46.6348C49.1454 49.8349 50.099 49.8282 50.8578 49.7275C56.4501 48.9852 60.8507 44.5485 61.5869 38.9104C61.6868 38.1453 61.6935 37.1839 61.6935 34.6527ZM28.2591 19.3965C34.9201 19.2392 50.3305 18.9176 57.5208 19.1178C54.0934 14.8613 48.8617 12.1412 43 12.1412C37.0113 12.1412 31.6804 14.9803 28.2591 19.3965ZM35.211 30.988C34.3507 30.988 33.6532 31.6912 33.6532 32.5586C33.6532 33.426 32.9558 34.1292 32.0954 34.1292C31.2351 34.1292 30.5376 33.426 30.5376 32.5586C30.5376 29.9564 32.63 27.8469 35.211 27.8469C37.792 27.8469 39.8844 29.9564 39.8844 32.5586C39.8844 33.426 39.1869 34.1292 38.3266 34.1292C37.4662 34.1292 36.7688 33.426 36.7688 32.5586C36.7688 31.6912 36.0713 30.988 35.211 30.988ZM52.3467 32.5586C52.3467 31.6912 53.0442 30.988 53.9045 30.988C54.7649 30.988 55.4623 31.6912 55.4623 32.5586C55.4623 33.426 56.1598 34.1292 57.0201 34.1292C57.8805 34.1292 58.5779 33.426 58.5779 32.5586C58.5779 29.9564 56.4856 27.8469 53.9045 27.8469C51.3235 27.8469 49.2312 29.9564 49.2312 32.5586C49.2312 33.426 49.9286 34.1292 50.7889 34.1292C51.6493 34.1292 52.3467 33.426 52.3467 32.5586ZM49.2312 34.1292H39.8844V35.6998C39.8844 38.302 41.9767 40.4115 44.5578 40.4115C47.1388 40.4115 49.2312 38.302 49.2312 35.6998V34.1292ZM28.4291 38.7457C28.1249 39.0523 28.1249 39.5495 28.4291 39.8562C28.7332 40.1629 29.2264 40.1629 29.5306 39.8562L31.5447 37.8256C31.8488 37.519 31.8488 37.0217 31.5447 36.7151C31.2405 36.4084 30.7473 36.4084 30.4431 36.7151L28.4291 38.7457ZM31.5447 38.7457C31.2405 39.0523 31.2405 39.5495 31.5447 39.8562C31.8488 40.1629 32.342 40.1629 32.6462 39.8562L34.6602 37.8256C34.9644 37.519 34.9644 37.0217 34.6602 36.7151C34.3561 36.4084 33.8629 36.4084 33.5587 36.7151L31.5447 38.7457ZM34.6602 38.7457C34.3561 39.0523 34.3561 39.5495 34.6602 39.8562C34.9644 40.1629 35.4576 40.1629 35.7618 39.8562L37.7758 37.8256C38.08 37.519 38.08 37.0217 37.7758 36.7151C37.4717 36.4084 36.9785 36.4084 36.6743 36.7151L34.6602 38.7457ZM50.2382 38.7457C49.934 39.0523 49.934 39.5495 50.2382 39.8562C50.5424 40.1629 51.0355 40.1629 51.3397 39.8562L53.3538 37.8256C53.6579 37.519 53.6579 37.0217 53.3538 36.7151C53.0496 36.4084 52.5564 36.4084 52.2522 36.7151L50.2382 38.7457ZM53.3538 38.7457C53.0496 39.0523 53.0496 39.5495 53.3538 39.8562C53.6579 40.1629 54.1511 40.1629 54.4553 39.8562L56.4694 37.8256C56.7735 37.519 56.7735 37.0217 56.4694 36.7151C56.1652 36.4084 55.672 36.4084 55.3678 36.7151L53.3538 38.7457ZM56.4694 38.7457C56.1652 39.0523 56.1652 39.5495 56.4694 39.8562C56.7735 40.1629 57.2667 40.1629 57.5709 39.8562L59.5849 37.8256C59.8891 37.519 59.8891 37.0217 59.5849 36.7151C59.2808 36.4084 58.7876 36.4084 58.4834 36.7151L56.4694 38.7457Z" fill="url(#paint0_linear_160_6094)"/>
  <path fill-rule="evenodd" clip-rule="evenodd" d="M80.9102 16.4297C81.1513 16.3109 81.4375 16.3298 81.6609 16.4793L85.26 18.8868C85.4834 19.0363 85.6101 19.2936 85.5924 19.5618C85.5747 19.83 85.4152 20.0683 85.1741 20.1871L81.2895 22.1002C81.0484 22.219 80.7622 22.2001 80.5388 22.0506C80.3154 21.9012 80.1887 21.6439 80.2064 21.3757L80.4919 17.055C80.5096 16.7868 80.6691 16.5484 80.9102 16.4297ZM81.9074 18.4544L81.7937 20.1746L83.3403 19.413L81.9074 18.4544Z" fill="#FFC001"/>
  <path d="M51 1.5C51 2.32843 50.3284 3 49.5 3C48.6716 3 48 2.32843 48 1.5C48 0.671573 48.6716 0 49.5 0C50.3284 0 51 0.671573 51 1.5Z" fill="#076AC9"/>
  <path d="M4 34C4 35.1046 3.10457 36 2 36C0.89543 36 0 35.1046 0 34C0 32.8954 0.89543 32 2 32C3.10457 32 4 32.8954 4 34Z" fill="#076AC9"/>
  <path d="M84 38C84 39.1046 83.1046 40 82 40C80.8954 40 80 39.1046 80 38C80 36.8954 80.8954 36 82 36C83.1046 36 84 36.8954 84 38Z" fill="#076AC9"/>
  <path d="M70 36C70 36.5523 69.5523 37 69 37C68.4477 37 68 36.5523 68 36C68 35.4477 68.4477 35 69 35C69.5523 35 70 35.4477 70 36Z" fill="#F8CAD4"/>
  <path d="M86 53C86 53.5523 85.5523 54 85 54C84.4477 54 84 53.5523 84 53C84 52.4477 84.4477 52 85 52C85.5523 52 86 52.4477 86 53Z" fill="#F8CAD4"/>
  <path d="M3 9C3 9.55228 2.55228 10 2 10C1.44772 10 1 9.55228 1 9C1 8.44772 1.44772 8 2 8C2.55228 8 3 8.44772 3 9Z" fill="#F8CAD4"/>
  <path d="M30 4C30 4.55228 29.5523 5 29 5C28.4477 5 28 4.55228 28 4C28 3.44772 28.4477 3 29 3C29.5523 3 30 3.44772 30 4Z" fill="#F8CAD4"/>
  <path d="M76 3C76 3.55228 75.5523 4 75 4C74.4477 4 74 3.55228 74 3C74 2.44772 74.4477 2 75 2C75.5523 2 76 2.44772 76 3Z" fill="#F8CAD4"/>
  <path d="M19 3C19 4.10457 18.1046 5 17 5C15.8954 5 15 4.10457 15 3C15 1.89543 15.8954 1 17 1C18.1046 1 19 1.89543 19 3Z" fill="#076AC9"/>
  <line x1="0.733251" y1="-0.733251" x2="5.47736" y2="-0.733251" transform="matrix(-0.859479 0.511172 -0.513673 -0.857986 14.6113 12.1267)" stroke="#FFC001" stroke-width="1.4665" stroke-linecap="round" stroke-linejoin="round"/>
  <line x1="0.733251" y1="-0.733251" x2="5.4676" y2="-0.733251" transform="matrix(0.513672 0.857987 -0.859478 0.511173 10.1348 11.9053)" stroke="#FFC001" stroke-width="1.4665" stroke-linecap="round" stroke-linejoin="round"/>
  <line x1="0.733251" y1="-0.733251" x2="5.47736" y2="-0.733251" transform="matrix(-0.859479 0.511172 -0.513673 -0.857986 68.6113 7.12671)" stroke="#FFC001" stroke-width="1.4665" stroke-linecap="round" stroke-linejoin="round"/>
  <line x1="0.733251" y1="-0.733251" x2="5.4676" y2="-0.733251" transform="matrix(0.513672 0.857987 -0.859478 0.511173 64.1348 6.90527)" stroke="#FFC001" stroke-width="1.4665" stroke-linecap="round" stroke-linejoin="round"/>
  <line x1="0.733251" y1="-0.733251" x2="5.47736" y2="-0.733251" transform="matrix(-0.859479 0.511172 -0.513673 -0.857986 73.6113 44.1267)" stroke="#FFC001" stroke-width="1.4665" stroke-linecap="round" stroke-linejoin="round"/>
  <line x1="0.733251" y1="-0.733251" x2="5.4676" y2="-0.733251" transform="matrix(0.513672 0.857987 -0.859478 0.511173 69.1348 43.9053)" stroke="#FFC001" stroke-width="1.4665" stroke-linecap="round" stroke-linejoin="round"/>
  <path fill-rule="evenodd" clip-rule="evenodd" d="M5.29177 43.8053C5.50292 43.639 5.78676 43.598 6.03637 43.6977L10.0576 45.3037C10.3072 45.4034 10.4847 45.6287 10.5232 45.8948C10.5616 46.1608 10.4553 46.4271 10.2441 46.5934L6.84256 49.2729C6.63142 49.4392 6.34758 49.4802 6.09797 49.3806C5.84836 49.2809 5.6709 49.0556 5.63243 48.7896L5.01272 44.504C4.97426 44.238 5.08063 43.9716 5.29177 43.8053ZM6.6884 45.5783L6.93512 47.2845L8.28938 46.2178L6.6884 45.5783Z" fill="#FFC001"/>
  <defs>
    <linearGradient id="paint0_linear_160_6094" x1="17" y1="30.9889" x2="70.9994" y2="30.9889" gradientUnits="userSpaceOnUse">
      <stop stop-color="#3034FF"/>
      <stop offset="0.54" stop-color="#086CB2"/>
      <stop offset="1" stop-color="#12847F"/>
    </linearGradient>
  </defs>
</svg>