<svg viewBox="0 0 16 16" fill="none" xmlns="http://www.w3.org/2000/svg">
<path fill-rule="evenodd" clip-rule="evenodd" d="M0 4C0 1.79086 1.79086 0 4 0H12C14.2091 0 16 1.79086 16 4V12C16 14.2091 14.2091 16 12 16H4C1.79086 16 0 14.2091 0 12V4Z" fill="#17AAA3"/>
<path d="M6.44238 7.99475C6.05406 7.60643 5.42446 7.60643 5.03613 7.99475C4.64781 8.38308 4.64781 9.01268 5.03613 9.401L6.4384 10.8033C6.82893 11.1938 7.46209 11.1938 7.85261 10.8033L11.1299 7.526C11.5182 7.13768 11.5182 6.50808 11.1299 6.11975C10.7416 5.73143 10.112 5.73143 9.72363 6.11975L7.84863 7.99475C7.46031 8.38308 6.83071 8.38308 6.44238 7.99475Z" fill="white"/>
</svg>
