<svg viewBox="0 0 10 11" fill="none" xmlns="http://www.w3.org/2000/svg">
<g id="Group">
<path id="Vector" d="M9.77816 0.322445C9.48237 0.0266545 9.00455 0.0266545 8.70876 0.322445L5 4.02362L1.29124 0.314861C0.99545 0.0190699 0.517634 0.0190699 0.221843 0.314861C-0.0739477 0.610651 -0.0739477 1.08847 0.221843 1.38426L3.9306 5.09302L0.221843 8.80178C-0.0739477 9.09757 -0.0739477 9.57538 0.221843 9.87117C0.517634 10.167 0.99545 10.167 1.29124 9.87117L5 6.16241L8.70876 9.87117C9.00455 10.167 9.48237 10.167 9.77816 9.87117C10.0739 9.57538 10.0739 9.09757 9.77816 8.80178L6.0694 5.09302L9.77816 1.38426C10.0664 1.09605 10.0664 0.610651 9.77816 0.322445Z" fill="black" fill-opacity="0.55"/>
</g>
</svg>
