<svg viewBox="0 0 24 24" fill="none" xmlns="http://www.w3.org/2000/svg">
<path fill-rule="evenodd" clip-rule="evenodd" d="M17.6584 5.47559C18.076 6.22607 18.5002 6.98834 18.5002 7.82903V8H21.5002V7.82903C21.5002 6.98834 21.9244 6.22603 22.342 5.47555C22.4564 5.27006 22.5702 5.06544 22.6747 4.86035C22.8828 4.45203 23.0002 3.98972 23.0002 3.5C23.0002 1.84315 21.657 0.5 20.0002 0.5C18.3433 0.5 17.0002 1.84315 17.0002 3.5C17.0002 3.98972 17.1175 4.45203 17.3256 4.86035C17.4301 5.06542 17.544 5.27009 17.6584 5.47556L17.6584 5.47557L17.6584 5.47558L17.6584 5.47558L17.6584 5.47559ZM20.1457 1.07143C19.9877 1.07143 19.8597 1.19935 19.8597 1.35714C19.8597 1.51494 19.9877 1.64286 20.1457 1.64286C20.7417 1.64286 21.143 1.88692 21.4115 2.18955C21.6876 2.50066 21.8251 2.87739 21.8653 3.1184C21.8912 3.27405 22.0386 3.3792 22.1943 3.35326C22.3501 3.32731 22.4554 3.18011 22.4294 3.02446C22.3743 2.69404 22.1972 2.21362 21.8394 1.81045C21.4741 1.39879 20.9222 1.07143 20.1457 1.07143ZM21.5002 9V8.5H18.5002V9C18.5002 9.55229 18.9479 10 19.5002 10H20.5002C21.0525 10 21.5002 9.55229 21.5002 9ZM8.00018 13.25C8.00018 13.6642 7.6644 14 7.25018 14C6.83597 14 6.50018 13.6642 6.50018 13.25C6.50018 12.8358 6.83597 12.5 7.25018 12.5C7.6644 12.5 8.00018 12.8358 8.00018 13.25ZM14.5002 13.25C14.5002 13.6642 14.1644 14 13.7502 14C13.336 14 13.0002 13.6642 13.0002 13.25C13.0002 12.8358 13.336 12.5 13.7502 12.5C14.1644 12.5 14.5002 12.8358 14.5002 13.25ZM11.0002 15.25C11.0002 15.5039 10.9117 15.7082 10.8016 15.8366C10.6933 15.963 10.5836 16 10.5002 16C10.4168 16 10.3071 15.963 10.1988 15.8366C10.0887 15.7082 10.0002 15.5039 10.0002 15.25C10.0002 14.9961 10.0887 14.7918 10.1988 14.6634C10.3071 14.537 10.4168 14.5 10.5002 14.5C10.5836 14.5 10.6933 14.537 10.8016 14.6634C10.9117 14.7918 11.0002 14.9961 11.0002 15.25ZM12.0002 15.25C12.0002 16.2165 11.3286 17 10.5002 17C9.67176 17 9.00018 16.2165 9.00018 15.25C9.00018 14.2835 9.67176 13.5 10.5002 13.5C11.3286 13.5 12.0002 14.2835 12.0002 15.25ZM9.6002 6C4.961 6 1.2002 9.76081 1.2002 14.4V19.0667C1.2002 20.3103 1.2002 20.9321 1.42506 21.4143C1.66352 21.9257 2.07453 22.3367 2.58591 22.5751C3.06813 22.8 3.68993 22.8 4.93353 22.8H11.0002C11.929 22.8 12.3935 22.8 12.7834 22.7487C15.4758 22.3942 17.5944 20.2756 17.9489 17.5832C18.0002 17.1933 18.0002 16.7288 18.0002 15.8V14.9554L18.8896 14.4419C19.4408 14.1237 19.843 13.5995 20.0078 12.9846L20.3638 11.6558C20.4496 11.3357 20.2597 11.0067 19.9396 10.9209C19.6195 10.8352 19.2905 11.0251 19.2047 11.3452L18.8487 12.6741C18.7663 12.9815 18.5652 13.2436 18.2896 13.4027L17.9618 13.5919C17.5552 9.33184 13.9668 6 9.6002 6ZM16.8002 15.8V14.4C16.8002 10.4235 13.5766 7.2 9.6002 7.2C5.62375 7.2 2.4002 10.4235 2.4002 14.4V19.0667C2.4002 19.7068 2.401 20.12 2.42488 20.4354C2.44781 20.7382 2.48689 20.8519 2.51263 20.9071C2.63186 21.1628 2.83736 21.3683 3.09305 21.4876C3.14825 21.5133 3.26196 21.5524 3.56481 21.5753C3.88017 21.5992 4.29344 21.6 4.93353 21.6H11.0002C11.9672 21.6 12.3345 21.5974 12.6267 21.5589C14.7806 21.2754 16.4756 19.5804 16.7591 17.4265C16.7976 17.1343 16.8002 16.767 16.8002 15.8Z" fill="url(#paint0_linear_101_2424)"/>
<defs>
<linearGradient id="paint0_linear_101_2424" x1="1.2002" y1="11.6504" x2="23.0002" y2="11.6504" gradientUnits="userSpaceOnUse">
<stop stop-color="#3034FF"/>
<stop offset="0.54" stop-color="#086CB2"/>
<stop offset="1" stop-color="#12847F"/>
</linearGradient>
</defs>
</svg>
