<svg viewBox="0 0 182 24" fill="none" xmlns="http://www.w3.org/2000/svg">
<path d="M118.681 10.6169C118.105 10.6169 117.601 10.4849 117.169 10.2209C116.743 9.95094 116.41 9.57594 116.17 9.09594C115.936 8.60994 115.819 8.04594 115.819 7.40394C115.819 6.76194 115.936 6.19794 116.17 5.71194C116.41 5.22594 116.743 4.84794 117.169 4.57794C117.601 4.30194 118.105 4.16394 118.681 4.16394C119.185 4.16394 119.629 4.27494 120.013 4.49694C120.397 4.71894 120.73 5.03094 121.012 5.43294L120.337 6.36894C120.115 5.99694 119.875 5.72094 119.617 5.54094C119.365 5.35494 119.068 5.26194 118.726 5.26194C118.396 5.26194 118.102 5.35194 117.844 5.53194C117.586 5.70594 117.385 5.95194 117.241 6.26994C117.097 6.58794 117.025 6.96294 117.025 7.39494C117.025 7.82094 117.097 8.19594 117.241 8.51994C117.391 8.83794 117.598 9.08394 117.862 9.25794C118.126 9.43194 118.432 9.51894 118.78 9.51894C119.122 9.51894 119.419 9.43794 119.671 9.27594C119.923 9.10794 120.163 8.83194 120.391 8.44794L121.048 9.38394C120.772 9.76194 120.433 10.0619 120.031 10.2839C119.635 10.5059 119.185 10.6169 118.681 10.6169Z" fill="black" fill-opacity="0.94"/>
<path d="M124.938 10.6169C124.356 10.6169 123.843 10.4819 123.399 10.2119C122.955 9.93594 122.607 9.55494 122.355 9.06894C122.109 8.58294 121.986 8.02494 121.986 7.39494C121.986 6.76494 122.109 6.20694 122.355 5.72094C122.607 5.23494 122.955 4.85394 123.399 4.57794C123.843 4.30194 124.356 4.16394 124.938 4.16394C125.52 4.16394 126.033 4.30194 126.477 4.57794C126.921 4.85394 127.269 5.23494 127.521 5.72094C127.773 6.20694 127.899 6.76494 127.899 7.39494C127.899 8.02494 127.773 8.58294 127.521 9.06894C127.269 9.55494 126.921 9.93594 126.477 10.2119C126.033 10.4819 125.52 10.6169 124.938 10.6169ZM124.938 9.52794C125.292 9.52794 125.598 9.43794 125.856 9.25794C126.12 9.07794 126.324 8.82894 126.468 8.51094C126.612 8.18694 126.684 7.81494 126.684 7.39494C126.684 6.97494 126.612 6.60594 126.468 6.28794C126.324 5.96394 126.12 5.71194 125.856 5.53194C125.598 5.34594 125.292 5.25294 124.938 5.25294C124.584 5.25294 124.275 5.34594 124.011 5.53194C123.753 5.71194 123.552 5.96394 123.408 6.28794C123.27 6.60594 123.201 6.97494 123.201 7.39494C123.201 7.81494 123.27 8.18694 123.408 8.51094C123.552 8.82894 123.753 9.07794 124.011 9.25794C124.275 9.43794 124.584 9.52794 124.938 9.52794Z" fill="black" fill-opacity="0.94"/>
<path d="M129.383 10.4999V4.28994H130.58L133.307 8.69994V4.28994H134.423V10.4999H133.226L130.499 6.08994V10.4999H129.383Z" fill="black" fill-opacity="0.94"/>
<path d="M137.576 10.4999V5.36994H135.785V4.28994H140.546V5.36994H138.746V10.4999H137.576Z" fill="black" fill-opacity="0.94"/>
<path d="M141.902 10.4999V4.28994H143.936C144.662 4.28994 145.241 4.46994 145.673 4.82994C146.111 5.18994 146.33 5.69094 146.33 6.33294C146.33 6.73494 146.24 7.08594 146.06 7.38594C145.88 7.68594 145.622 7.91994 145.286 8.08794L147.104 10.4999H145.718L144.179 8.36694C144.077 8.37294 143.972 8.37594 143.864 8.37594H143.063V10.4999H141.902ZM143.882 5.30694H143.063V7.35894H143.882C144.278 7.35894 144.587 7.27794 144.809 7.11594C145.031 6.95394 145.142 6.69294 145.142 6.33294C145.142 5.98494 145.031 5.72694 144.809 5.55894C144.587 5.39094 144.278 5.30694 143.882 5.30694Z" fill="black" fill-opacity="0.94"/>
<path d="M148.236 10.4999V4.28994H149.415V10.4999H148.236Z" fill="black" fill-opacity="0.94"/>
<path d="M151.265 10.4999V4.28994H153.452C154.13 4.28994 154.661 4.43094 155.045 4.71294C155.429 4.99494 155.621 5.38794 155.621 5.89194C155.621 6.24594 155.54 6.53094 155.378 6.74694C155.222 6.95694 154.982 7.12194 154.658 7.24194C155.06 7.36194 155.366 7.54494 155.576 7.79094C155.792 8.03694 155.9 8.34894 155.9 8.72694C155.9 9.29094 155.699 9.72894 155.297 10.0409C154.901 10.3469 154.349 10.4999 153.641 10.4999H151.265ZM153.407 5.25294H152.417V6.82794H153.407C153.731 6.82794 153.986 6.76794 154.172 6.64794C154.358 6.52194 154.451 6.31494 154.451 6.02694C154.451 5.74494 154.355 5.54694 154.163 5.43294C153.977 5.31294 153.725 5.25294 153.407 5.25294ZM153.596 7.74594H152.417V9.53694H153.596C153.956 9.53694 154.232 9.46194 154.424 9.31194C154.622 9.16194 154.721 8.93394 154.721 8.62794C154.721 8.32794 154.619 8.10594 154.415 7.96194C154.217 7.81794 153.944 7.74594 153.596 7.74594Z" fill="black" fill-opacity="0.94"/>
<path d="M159.666 10.6169C159.18 10.6169 158.751 10.5209 158.379 10.3289C158.013 10.1309 157.725 9.83394 157.515 9.43794C157.305 9.04194 157.2 8.54094 157.2 7.93494V4.28994H158.379V7.96194C158.379 8.53794 158.499 8.94294 158.739 9.17694C158.985 9.41094 159.294 9.52794 159.666 9.52794C160.038 9.52794 160.341 9.41094 160.575 9.17694C160.815 8.94294 160.935 8.53794 160.935 7.96194V4.28994H162.105V7.93494C162.105 8.54094 162 9.04194 161.79 9.43794C161.586 9.83394 161.301 10.1309 160.935 10.3289C160.569 10.5209 160.146 10.6169 159.666 10.6169Z" fill="black" fill-opacity="0.94"/>
<path d="M165.115 10.4999V5.36994H163.324V4.28994H168.085V5.36994H166.285V10.4999H165.115Z" fill="black" fill-opacity="0.94"/>
<path d="M171.761 10.6169C171.179 10.6169 170.666 10.4819 170.222 10.2119C169.778 9.93594 169.43 9.55494 169.178 9.06894C168.932 8.58294 168.809 8.02494 168.809 7.39494C168.809 6.76494 168.932 6.20694 169.178 5.72094C169.43 5.23494 169.778 4.85394 170.222 4.57794C170.666 4.30194 171.179 4.16394 171.761 4.16394C172.343 4.16394 172.856 4.30194 173.3 4.57794C173.744 4.85394 174.092 5.23494 174.344 5.72094C174.596 6.20694 174.722 6.76494 174.722 7.39494C174.722 8.02494 174.596 8.58294 174.344 9.06894C174.092 9.55494 173.744 9.93594 173.3 10.2119C172.856 10.4819 172.343 10.6169 171.761 10.6169ZM171.761 9.52794C172.115 9.52794 172.421 9.43794 172.679 9.25794C172.943 9.07794 173.147 8.82894 173.291 8.51094C173.435 8.18694 173.507 7.81494 173.507 7.39494C173.507 6.97494 173.435 6.60594 173.291 6.28794C173.147 5.96394 172.943 5.71194 172.679 5.53194C172.421 5.34594 172.115 5.25294 171.761 5.25294C171.407 5.25294 171.098 5.34594 170.834 5.53194C170.576 5.71194 170.375 5.96394 170.231 6.28794C170.093 6.60594 170.024 6.97494 170.024 7.39494C170.024 7.81494 170.093 8.18694 170.231 8.51094C170.375 8.82894 170.576 9.07794 170.834 9.25794C171.098 9.43794 171.407 9.52794 171.761 9.52794Z" fill="black" fill-opacity="0.94"/>
<path d="M176.206 10.4999V4.28994H178.24C178.966 4.28994 179.545 4.46994 179.977 4.82994C180.415 5.18994 180.634 5.69094 180.634 6.33294C180.634 6.73494 180.544 7.08594 180.364 7.38594C180.184 7.68594 179.926 7.91994 179.59 8.08794L181.408 10.4999H180.022L178.483 8.36694C178.381 8.37294 178.276 8.37594 178.168 8.37594H177.367V10.4999H176.206ZM178.186 5.30694H177.367V7.35894H178.186C178.582 7.35894 178.891 7.27794 179.113 7.11594C179.335 6.95394 179.446 6.69294 179.446 6.33294C179.446 5.98494 179.335 5.72694 179.113 5.55894C178.891 5.39094 178.582 5.30694 178.186 5.30694Z" fill="black" fill-opacity="0.94"/>
<path d="M118.681 20.3669C118.105 20.3669 117.601 20.2349 117.169 19.9709C116.743 19.7009 116.41 19.3259 116.17 18.8459C115.936 18.3599 115.819 17.7959 115.819 17.1539C115.819 16.5119 115.936 15.9479 116.17 15.4619C116.41 14.9759 116.743 14.5979 117.169 14.3279C117.601 14.0519 118.105 13.9139 118.681 13.9139C119.185 13.9139 119.629 14.0249 120.013 14.2469C120.397 14.4689 120.73 14.7809 121.012 15.1829L120.337 16.1189C120.115 15.7469 119.875 15.4709 119.617 15.2909C119.365 15.1049 119.068 15.0119 118.726 15.0119C118.396 15.0119 118.102 15.1019 117.844 15.2819C117.586 15.4559 117.385 15.7019 117.241 16.0199C117.097 16.3379 117.025 16.7129 117.025 17.1449C117.025 17.5709 117.097 17.9459 117.241 18.2699C117.391 18.5879 117.598 18.8339 117.862 19.0079C118.126 19.1819 118.432 19.2689 118.78 19.2689C119.122 19.2689 119.419 19.1879 119.671 19.0259C119.923 18.8579 120.163 18.5819 120.391 18.1979L121.048 19.1339C120.772 19.5119 120.433 19.8119 120.031 20.0339C119.635 20.2559 119.185 20.3669 118.681 20.3669Z" fill="black" fill-opacity="0.94"/>
<path d="M124.938 20.3669C124.356 20.3669 123.843 20.2319 123.399 19.9619C122.955 19.6859 122.607 19.3049 122.355 18.8189C122.109 18.3329 121.986 17.7749 121.986 17.1449C121.986 16.5149 122.109 15.9569 122.355 15.4709C122.607 14.9849 122.955 14.6039 123.399 14.3279C123.843 14.0519 124.356 13.9139 124.938 13.9139C125.52 13.9139 126.033 14.0519 126.477 14.3279C126.921 14.6039 127.269 14.9849 127.521 15.4709C127.773 15.9569 127.899 16.5149 127.899 17.1449C127.899 17.7749 127.773 18.3329 127.521 18.8189C127.269 19.3049 126.921 19.6859 126.477 19.9619C126.033 20.2319 125.52 20.3669 124.938 20.3669ZM124.938 19.2779C125.292 19.2779 125.598 19.1879 125.856 19.0079C126.12 18.8279 126.324 18.5789 126.468 18.2609C126.612 17.9369 126.684 17.5649 126.684 17.1449C126.684 16.7249 126.612 16.3559 126.468 16.0379C126.324 15.7139 126.12 15.4619 125.856 15.2819C125.598 15.0959 125.292 15.0029 124.938 15.0029C124.584 15.0029 124.275 15.0959 124.011 15.2819C123.753 15.4619 123.552 15.7139 123.408 16.0379C123.27 16.3559 123.201 16.7249 123.201 17.1449C123.201 17.5649 123.27 17.9369 123.408 18.2609C123.552 18.5789 123.753 18.8279 124.011 19.0079C124.275 19.1879 124.584 19.2779 124.938 19.2779Z" fill="black" fill-opacity="0.94"/>
<path d="M129.383 20.2499V14.0399H130.652L132.434 16.9019L134.216 14.0399H135.422V20.2499H134.279V15.7229L132.407 18.6929L130.526 15.7139V20.2499H129.383Z" fill="black" fill-opacity="0.94"/>
<path d="M137.273 20.2499V14.0399H138.542L140.324 16.9019L142.106 14.0399H143.312V20.2499H142.169V15.7229L140.297 18.6929L138.416 15.7139V20.2499H137.273Z" fill="black" fill-opacity="0.94"/>
<path d="M147.485 20.3669C146.999 20.3669 146.57 20.2709 146.198 20.0789C145.832 19.8809 145.544 19.5839 145.334 19.1879C145.124 18.7919 145.019 18.2909 145.019 17.6849V14.0399H146.198V17.7119C146.198 18.2879 146.318 18.6929 146.558 18.9269C146.804 19.1609 147.113 19.2779 147.485 19.2779C147.857 19.2779 148.16 19.1609 148.394 18.9269C148.634 18.6929 148.754 18.2879 148.754 17.7119V14.0399H149.924V17.6849C149.924 18.2909 149.819 18.7919 149.609 19.1879C149.405 19.5839 149.12 19.8809 148.754 20.0789C148.388 20.2709 147.965 20.3669 147.485 20.3669Z" fill="black" fill-opacity="0.94"/>
<path d="M151.629 20.2499V14.0399H152.826L155.553 18.4499V14.0399H156.669V20.2499H155.472L152.745 15.8399V20.2499H151.629Z" fill="black" fill-opacity="0.94"/>
<path d="M158.516 20.2499V14.0399H159.695V20.2499H158.516Z" fill="black" fill-opacity="0.94"/>
<path d="M162.851 20.2499V15.1199H161.06V14.0399H165.821V15.1199H164.021V20.2499H162.851Z" fill="black" fill-opacity="0.94"/>
<path d="M168.847 20.2499V17.6489L166.66 14.0399H168.01L169.477 16.6499L170.944 14.0399H172.204L170.017 17.6489V20.2499H168.847Z" fill="black" fill-opacity="0.94"/>
<path d="M106.479 11.8758C106.062 11.8758 105.712 11.7392 105.427 11.4652C105.142 11.1916 105 10.8516 105 10.4462C105 10.0408 105.142 9.69814 105.427 9.41892C105.712 9.13951 106.062 9 106.479 9C106.884 9 107.229 9.1394 107.515 9.41892C107.799 9.69803 107.942 10.0408 107.942 10.4462C107.942 10.8516 107.799 11.1916 107.515 11.4652C107.229 11.7392 106.884 11.8758 106.479 11.8758Z" fill="black" fill-opacity="0.94"/>
<path d="M106.479 18.5843C106.062 18.5843 105.712 18.4474 105.427 18.1734C105.142 17.8997 105 17.56 105 17.1549C105 16.7495 105.142 16.407 105.427 16.1273C105.712 15.8481 106.062 15.7085 106.479 15.7085C106.884 15.7085 107.229 15.848 107.515 16.1273C107.799 16.4069 107.942 16.7495 107.942 17.1549C107.942 17.56 107.799 17.8997 107.515 18.1734C107.229 18.4474 106.884 18.5843 106.479 18.5843Z" fill="black" fill-opacity="0.94"/>
<g clip-path="url(#clip0_92_1330)">
<path fill-rule="evenodd" clip-rule="evenodd" d="M24.0525 13.3349L28.0357 8.5536H24.7807L21.9947 12.1069V5.16931H19.6036V18.7537H21.9947V14.5639L25.4196 18.7537H28.6732L24.0525 13.3349ZM42.363 16.5909C42.6678 16.5909 42.9312 16.4812 43.1395 16.3401L44.6702 18.3709C43.9393 18.8024 43.0439 19.0128 42.3982 19.0128C40.6668 19.0128 38.9458 17.6526 38.9462 15.375V10.9744H37.718V8.55338H38.9462V6.0119H41.2683V8.55338H43.254V10.9744H41.2683V15.3395C41.2683 16.3023 41.9838 16.5909 42.363 16.5909ZM2.42847 8.43125H4.01333C5.10402 8.43125 5.99588 9.31542 5.99588 10.405C5.99588 11.4973 5.10402 12.381 4.01333 12.381H2.42847V8.43125ZM2.42847 18.7536V14.802H4.14634L7.11993 18.7536H10.1603L6.5667 13.9853C7.6867 13.1838 8.42209 11.8807 8.42209 10.405C8.42209 7.98085 6.44496 6.01204 4.01333 6.01204H0V18.7536H2.42847ZM56.1958 12.7619V18.7537H53.8737V8.55369H56.1958V8.93307C56.1958 8.93307 57.0272 8.30287 58.1693 8.30287C60.6361 8.30287 62.3228 10.3031 62.3228 12.7619V18.7537H60.0008V12.7619C60.0008 11.6377 59.2257 10.6888 58.0985 10.6888C56.9704 10.6888 56.1958 11.6377 56.1958 12.7619ZM13.7698 16.5479C12.4672 16.5479 11.5136 15.2691 11.5136 13.6541C11.5136 12.0399 12.4672 10.7611 13.7698 10.7611C15.0738 10.7611 15.9931 12.0399 15.9931 13.6541C15.9931 15.2691 15.0738 16.5479 13.7698 16.5479ZM15.9575 8.55359V9.00624C15.2573 8.56168 14.6296 8.30322 13.7698 8.30322C11.1281 8.30322 9.12118 10.7044 9.12118 13.6541C9.12118 16.6041 11.1281 19.004 13.7698 19.004C14.6296 19.004 15.2573 18.7469 15.9575 18.3014V18.7536H18.2796V8.55359H15.9575ZM34.5587 8.55373V14.5456C34.5587 15.6698 33.7841 16.6187 32.656 16.6187C31.5287 16.6187 30.7537 15.6698 30.7537 14.5456V8.55373H28.4316V14.5456C28.4316 17.0043 30.1184 19.0042 32.5852 19.0042C33.7273 19.0042 34.5587 18.3744 34.5587 18.3744V18.7538H36.8808V8.55373H34.5587ZM50.5304 12.3372H46.348C46.8367 9.94808 50.0777 9.81099 50.5304 12.3372ZM43.8879 13.6538C43.8879 10.6493 45.8155 8.29482 48.5032 8.29482C51.1454 8.29482 53.5216 10.7041 52.9489 14.368L46.2605 14.3662C46.5658 16.6973 49.2093 17.8804 50.7951 15.5493L52.8461 16.7301C51.5277 18.5947 49.9587 19.0136 48.7341 19.0136C46.3074 19.0136 43.8879 16.8128 43.8879 13.6538Z" fill="#0C9BFF"/>
<path fill-rule="evenodd" clip-rule="evenodd" d="M50.1706 20.665H12.4648L15.4682 23.6592L50.1706 20.665Z" fill="#0C9BFF"/>
<path fill-rule="evenodd" clip-rule="evenodd" d="M78.485 9.20636V18.4733C78.485 18.6283 78.6108 18.7537 78.7664 18.7537H81.4392C81.5943 18.7537 81.7201 18.6283 81.7201 18.4733V9.20636C81.7201 9.05129 81.5943 8.92588 81.4392 8.92588H78.7664C78.6108 8.92588 78.485 9.05129 78.485 9.20636ZM78.7705 7.51265C79.1253 7.86011 79.5699 8.03407 80.1028 8.03407C80.6358 8.03407 81.0794 7.86011 81.4347 7.51265C81.79 7.16429 81.9677 6.73771 81.9677 6.23157C81.9677 5.72588 81.79 5.29886 81.4347 4.95095C81.0794 4.60303 80.6358 4.42908 80.1028 4.42908C79.5699 4.42908 79.1253 4.60303 78.7705 4.95095C78.4152 5.29886 78.2375 5.72588 78.2375 6.23157C78.2375 6.73771 78.4152 7.16429 78.7705 7.51265ZM73.6765 18.4861L77.3332 6.91418C77.3747 6.78293 77.2764 6.64898 77.1384 6.64898H74.3979C74.2365 6.64898 74.0954 6.75686 74.053 6.91193L71.7815 15.22C71.7612 15.2951 71.6543 15.2951 71.6336 15.22L69.3625 6.91193C69.3201 6.75686 69.179 6.64898 69.0171 6.64898H66.1057C65.9678 6.64898 65.8695 6.78293 65.911 6.91418L69.5676 18.4861C69.6181 18.6452 69.766 18.7536 69.9333 18.7536H73.3109C73.4781 18.7536 73.626 18.6452 73.6765 18.4861ZM83.2455 18.4733V5.56317C83.2455 5.40854 83.3713 5.28313 83.5269 5.28313H86.1997C86.3548 5.28313 86.4806 5.40854 86.4806 5.56317V12.3326C86.4806 12.4207 86.5952 12.4554 86.6448 12.3825L88.818 9.15693C88.9154 9.01264 89.0786 8.92588 89.2531 8.92588H92.4377C92.5545 8.92588 92.6203 9.05939 92.5491 9.15153L89.3888 13.2438C89.2901 13.3714 89.2897 13.5494 89.3879 13.678L93.1028 18.5286C93.1736 18.6207 93.1073 18.7538 92.991 18.7538H89.5746C89.4006 18.7538 89.2378 18.6697 89.1368 18.529L86.6434 15.035C86.5929 14.964 86.4806 14.9995 86.4806 15.0867V18.4733C86.4806 18.6283 86.3548 18.7538 86.1997 18.7538H83.5269C83.3713 18.7538 83.2455 18.6283 83.2455 18.4733ZM94.0184 9.20636V18.4733C94.0184 18.6283 94.1442 18.7537 94.2998 18.7537H96.9726C97.1277 18.7537 97.2535 18.6283 97.2535 18.4733V9.20636C97.2535 9.05129 97.1277 8.92588 96.9726 8.92588H94.2998C94.1442 8.92588 94.0184 9.05129 94.0184 9.20636ZM94.3038 7.51265C94.6587 7.86011 95.1032 8.03407 95.6362 8.03407C96.1691 8.03407 96.6128 7.86011 96.9681 7.51265C97.3234 7.16429 97.501 6.73771 97.501 6.23157C97.501 5.72588 97.3234 5.29886 96.9681 4.95095C96.6128 4.60303 96.1691 4.42908 95.6362 4.42908C95.1032 4.42908 94.6587 4.60303 94.3038 4.95095C93.9485 5.29886 93.7709 5.72588 93.7709 6.23157C93.7709 6.73771 93.9485 7.16429 94.3038 7.51265Z" fill="#0C9BFF"/>
</g>
<defs>
<clipPath id="clip0_92_1330">
<rect width="97.5" height="24" fill="white"/>
</clipPath>
</defs>
</svg>
