<svg viewBox="0 0 16 16" fill="none" xmlns="http://www.w3.org/2000/svg">
<g id="refresh &#226;&#134;&#187;">
<path id="Vector" d="M12.7046 3.29171C11.4962 2.08337 9.83789 1.33337 7.99622 1.33337C4.31289 1.33337 1.33789 4.31671 1.33789 8.00004C1.33789 11.6834 4.31289 14.6667 7.99622 14.6667C10.7101 14.6667 13.0302 13.0468 14.0689 10.7221C14.3002 10.2046 13.8855 9.66671 13.3187 9.66671C12.9507 9.66671 12.6294 9.90263 12.4653 10.232C11.6479 11.8728 9.95368 13 7.99622 13C5.23789 13 2.99622 10.7584 2.99622 8.00004C2.99622 5.24171 5.23789 3.00004 7.99622 3.00004C9.37956 3.00004 10.6129 3.57504 11.5129 4.48337L9.68311 6.31315C9.36813 6.62814 9.59121 7.16671 10.0367 7.16671H13.6629C14.2152 7.16671 14.6629 6.71899 14.6629 6.16671V2.54048C14.6629 2.09503 14.1243 1.87195 13.8093 2.18693L12.7046 3.29171Z" fill="black" fill-opacity="0.94"/>
</g>
</svg>
