<svg viewBox="0 0 24 24" fill="none" xmlns="http://www.w3.org/2000/svg">
<g id="24px / sort">
<path id="Union" fill-rule="evenodd" clip-rule="evenodd" d="M9.70714 11.2929C10.0977 11.6834 10.0977 12.3166 9.70714 12.7071L7.41424 15L15 15C15.5523 15 16 15.4477 16 16C16 16.5523 15.5523 17 15 17L7.41424 17L9.70714 19.2929C10.0977 19.6834 10.0977 20.3166 9.70714 20.7071C9.31661 21.0976 8.68345 21.0976 8.29292 20.7071L4.29292 16.7071C3.9024 16.3166 3.9024 15.6834 4.29292 15.2929L8.29292 11.2929C8.68345 10.9024 9.31661 10.9024 9.70714 11.2929Z" fill="black"/>
<path id="Union_2" fill-rule="evenodd" clip-rule="evenodd" d="M14.2929 12.7071C13.9023 12.3166 13.9023 11.6834 14.2929 11.2929L16.5858 9L8.99997 9C8.44768 9 7.99997 8.55228 7.99997 8C7.99997 7.44771 8.44769 7 8.99997 7L16.5858 7L14.2929 4.70711C13.9023 4.31658 13.9023 3.68342 14.2929 3.29289C14.6834 2.90237 15.3166 2.90237 15.7071 3.29289L19.7071 7.29289C20.0976 7.68342 20.0976 8.31658 19.7071 8.70711L15.7071 12.7071C15.3166 13.0976 14.6834 13.0976 14.2929 12.7071Z" fill="black"/>
</g>
</svg>
