<svg viewBox="0 0 24 24" fill="none" xmlns="http://www.w3.org/2000/svg">
<path d="M12 6.44444C12.6136 6.44444 13.1111 6.94191 13.1111 7.55556L11.212 12.7833C11.0123 12.5824 10.8889 12.3056 10.8889 12V7.55556C10.8889 6.94191 11.3864 6.44444 12 6.44444Z" fill="black" fill-opacity="0.55"/>
<path d="M13.1111 7.55556L11.2148 12.7861L14.357 15.9284C14.7909 16.3623 15.4945 16.3623 15.9284 15.9284C16.3623 15.4945 16.3623 14.7909 15.9284 14.357L13.1111 11.5398V7.55556Z" fill="black" fill-opacity="0.55"/>
<path fill-rule="evenodd" clip-rule="evenodd" d="M22 12C22 17.5228 17.5228 22 12 22C6.47715 22 2 17.5228 2 12C2 6.47715 6.47715 2 12 2C17.5228 2 22 6.47715 22 12ZM19.7778 12C19.7778 16.2955 16.2955 19.7778 12 19.7778C7.70445 19.7778 4.22222 16.2955 4.22222 12C4.22222 7.70445 7.70445 4.22222 12 4.22222C16.2955 4.22222 19.7778 7.70445 19.7778 12Z" fill="black" fill-opacity="0.55"/>
</svg>
